<?xml version="1.0" standalone="no"?>
<!DOCTYPE svg PUBLIC "-//W3C//DTD SVG 20010904//EN"
 "http://www.w3.org/TR/2001/REC-SVG-20010904/DTD/svg10.dtd">
<svg version="1.0" xmlns="http://www.w3.org/2000/svg"
 width="300.000000pt" height="300.000000pt" viewBox="0 0 300.000000 300.000000"
 preserveAspectRatio="xMidYMid meet">
<metadata>
Created by potrace 1.14, written by Peter Selinger 2001-2017
</metadata>
<g transform="translate(0.000000,300.000000) scale(0.100000,-0.100000)"
fill="#000000" stroke="none">
<path d="M1507 2984 c-1 -1 -40 -4 -87 -8 -126 -9 -153 -14 -295 -53 -155 -42
-276 -97 -408 -187 -55 -36 -101 -66 -104 -66 -11 0 -251 -251 -283 -296 -19
-27 -37 -51 -40 -54 -14 -13 -90 -141 -113 -191 -49 -107 -102 -275 -122 -384
-24 -134 -24 -359 -1 -470 37 -177 134 -444 170 -467 6 -5 7 -8 1 -8 -6 0 -6
-3 0 -8 6 -4 26 -32 45 -62 19 -30 45 -66 57 -80 13 -14 23 -28 23 -32 0 -15
151 -174 230 -243 67 -57 246 -171 315 -200 39 -16 72 -32 75 -35 5 -6 159
-59 190 -65 8 -2 16 -4 18 -5 3 -3 13 -6 52 -13 19 -4 49 -10 65 -13 48 -10
369 -13 411 -4 22 5 53 11 69 14 145 25 378 119 520 211 50 31 92 60 95 64 3
4 34 30 70 58 81 63 147 133 232 244 134 174 211 339 272 584 2 6 6 33 10 60
4 28 10 61 12 75 9 49 5 287 -6 360 -15 98 -44 207 -82 303 -16 44 -31 84 -32
90 -1 7 -18 41 -37 77 -18 36 -36 70 -38 75 -2 6 -7 12 -11 15 -3 3 -25 32
-47 65 l-41 61 20 24 c25 31 20 71 -12 87 -21 10 -29 9 -54 -7 l-30 -18 -50
48 c-120 113 -147 135 -255 207 -224 149 -431 219 -714 242 -48 4 -89 6 -90 5z
m201 -116 c26 -4 57 -10 69 -12 72 -14 189 -53 263 -88 47 -23 87 -42 90 -42
17 -4 132 -71 149 -87 11 -10 23 -19 26 -19 10 0 125 -98 176 -150 l48 -48
-43 -35 -42 -35 -60 60 c-32 34 -59 59 -59 57 0 -2 -21 12 -47 30 -27 19 -48
38 -48 43 0 4 -6 8 -13 8 -7 0 -22 8 -33 18 -64 58 -279 143 -449 179 -129 27
-332 23 -475 -8 -188 -42 -396 -139 -498 -234 -15 -14 -30 -25 -35 -25 -24 0
-236 -239 -285 -322 -14 -24 -30 -46 -35 -49 -5 -3 -8 -8 -7 -10 0 -2 -12 -33
-28 -69 -38 -82 -77 -208 -91 -288 -6 -34 -13 -74 -16 -89 -14 -75 -4 -298 17
-388 6 -27 11 -51 10 -52 -1 -2 15 -49 34 -105 41 -119 93 -227 135 -280 16
-20 29 -40 29 -43 0 -4 6 -12 13 -20 6 -7 26 -30 42 -51 36 -47 106 -117 160
-162 22 -17 51 -42 65 -53 124 -104 355 -207 545 -243 91 -17 356 -15 415 3
19 5 46 12 60 15 43 8 199 66 260 97 31 16 62 29 68 29 5 0 15 7 22 15 7 8 16
12 21 9 5 -3 9 -1 9 3 0 5 15 17 33 28 17 10 34 21 37 24 3 3 28 24 55 46 62
50 199 185 188 185 -4 1 1 8 12 18 25 21 139 190 142 210 1 8 5 18 10 21 4 3
9 13 11 21 2 8 11 33 21 55 18 39 48 128 57 170 42 200 44 380 8 550 -13 61
-25 117 -28 125 -6 21 -56 152 -65 170 -31 63 -68 127 -78 138 -7 7 -13 16
-13 18 0 8 22 48 30 54 3 3 13 16 22 29 l16 23 28 -43 c15 -24 26 -46 25 -48
-2 -2 2 -7 7 -10 36 -23 164 -343 176 -441 3 -25 9 -70 13 -100 9 -70 9 -257
-1 -335 -11 -89 -42 -218 -72 -293 -39 -98 -103 -222 -114 -222 -6 0 -9 -3 -8
-7 8 -24 -90 -152 -196 -259 -210 -210 -432 -333 -699 -389 -10 -2 -26 -6 -35
-9 -33 -10 -138 -19 -237 -20 -188 -2 -392 43 -562 124 -98 46 -194 105 -201
122 -2 4 -10 8 -17 8 -8 0 -25 10 -40 23 -14 12 -42 35 -63 52 -44 35 -215
217 -213 227 0 4 -10 18 -22 32 -12 13 -31 41 -42 63 -11 21 -23 40 -26 43
-16 13 -113 223 -125 270 -2 8 -10 36 -18 63 -8 26 -13 47 -10 47 3 0 2 6 -3
13 -24 38 -35 307 -20 457 11 97 22 152 44 210 3 8 7 21 9 27 6 30 57 155 67
166 7 7 13 17 14 23 6 36 129 217 198 293 92 102 250 241 273 241 6 0 12 4 14
9 5 15 232 136 273 146 6 1 18 5 27 9 9 4 22 8 30 10 7 1 18 4 23 8 12 7 129
34 200 47 65 11 322 11 383 -1z m-38 -212 c218 -31 448 -141 607 -293 l83 -78
-25 -20 c-13 -11 -57 -51 -97 -88 -40 -38 -86 -78 -101 -90 -16 -12 -51 -42
-77 -67 -27 -25 -67 -62 -89 -83 -23 -20 -41 -36 -41 -34 0 2 -22 -17 -49 -42
-27 -25 -90 -84 -141 -131 -51 -47 -125 -116 -164 -155 -40 -38 -87 -83 -103
-98 l-31 -29 -40 44 c-100 108 -255 261 -275 271 -19 10 -207 14 -319 8 -10
-1 -25 -12 -34 -26 -21 -32 -7 -71 41 -111 19 -15 32 -32 29 -36 -3 -4 -1 -8
5 -8 6 0 30 -21 53 -46 23 -25 96 -101 163 -168 66 -68 172 -176 235 -241 115
-118 115 -119 168 -123 48 -4 56 -2 84 24 17 16 44 47 60 69 16 21 50 62 76
90 25 27 80 91 120 140 41 50 82 97 91 105 9 8 45 49 80 90 71 85 155 181 189
219 13 13 35 40 50 59 60 76 81 95 137 126 71 37 85 57 66 88 -12 19 -11 23 7
37 11 9 27 29 37 44 l18 28 26 -38 c34 -51 97 -197 121 -284 18 -65 34 -208
34 -304 -1 -210 -37 -362 -129 -530 -64 -117 -126 -199 -220 -290 -99 -95 -95
-92 -182 -150 -226 -153 -504 -217 -768 -178 -49 7 -130 25 -180 39 -86 25
-222 87 -237 109 -4 5 -11 10 -15 10 -4 0 -35 18 -68 40 -90 59 -244 217 -309
317 -51 79 -124 218 -130 250 -2 7 -6 20 -9 28 -10 26 -27 86 -32 111 -25 119
-25 374 -1 484 12 57 40 143 52 163 8 12 12 22 8 22 -3 0 1 11 10 25 9 14 14
25 11 25 -9 0 20 52 85 150 85 128 323 362 351 344 5 -3 9 -1 9 4 0 5 17 17
38 28 20 10 39 22 42 26 9 11 112 55 190 81 79 27 111 33 200 43 30 3 56 7 57
8 5 5 185 -2 233 -8z m684 -527 c-10 -12 -38 -43 -62 -68 -24 -25 -51 -57 -60
-71 -17 -25 -55 -71 -102 -120 -35 -37 -79 -89 -115 -135 -16 -21 -48 -58 -70
-81 -55 -57 -95 -103 -128 -148 -16 -20 -48 -58 -72 -84 -42 -45 -84 -95 -171
-198 -75 -88 -82 -95 -102 -99 -13 -2 -29 7 -46 26 -14 16 -24 29 -22 29 3 0
-7 13 -22 28 -15 16 -29 28 -32 28 -3 0 -42 37 -87 84 -45 47 -139 144 -209
215 l-126 130 77 3 78 3 170 -173 c94 -95 177 -173 185 -174 7 -2 32 14 55 34
23 20 57 51 75 67 19 17 64 59 101 95 102 98 290 272 386 355 31 28 72 64 90
80 17 17 61 55 95 85 35 30 77 67 94 82 37 33 46 36 20 7z"/>
<path d="M1476 2558 c-10 -17 -14 -53 -13 -136 2 -105 4 -115 24 -132 28 -22
56 -16 73 14 18 35 10 254 -10 266 -26 17 -59 11 -74 -12z"/>
<path d="M2022 2394 c-34 -23 -93 -119 -86 -138 13 -34 43 -39 79 -14 19 12
32 24 30 27 -2 2 7 18 20 36 31 40 32 68 1 88 -21 14 -26 14 -44 1z"/>
<path d="M957 2382 c-10 -10 -17 -22 -17 -27 0 -20 74 -117 96 -125 29 -12 53
-3 56 19 3 41 2 47 -12 62 -8 9 -28 33 -43 53 -31 40 -55 45 -80 18z"/>
<path d="M622 2048 c-5 -7 -13 -23 -16 -35 -7 -23 11 -40 96 -83 55 -28 81
-21 86 22 3 28 -18 48 -95 87 -49 24 -57 25 -71 9z"/>
<path d="M487 1562 c-51 -14 -65 -43 -41 -86 10 -17 24 -19 129 -20 110 -1
118 0 135 21 21 27 16 59 -13 74 -18 10 -180 18 -210 11z"/>
<path d="M2354 1561 c-30 -5 -44 -21 -44 -51 0 -47 23 -56 141 -55 74 0 112 5
123 14 20 17 21 64 1 81 -14 12 -175 20 -221 11z"/>
<path d="M694 1092 c-78 -44 -91 -55 -89 -80 3 -41 44 -54 83 -26 12 8 22 12
22 7 0 -4 4 -3 8 2 4 6 21 18 37 27 35 19 44 57 20 82 -21 21 -21 21 -81 -12z"/>
<path d="M2251 1099 c-29 -32 -13 -58 59 -96 79 -42 119 -39 116 7 -1 16 -4
31 -7 34 -8 7 -136 76 -142 76 -3 0 -15 -9 -26 -21z"/>
<path d="M1013 768 c-11 -13 -33 -42 -48 -66 -23 -35 -26 -46 -17 -66 25 -56
77 -32 128 61 28 51 28 52 10 72 -25 27 -48 27 -73 -1z"/>
<path d="M1954 782 c-28 -19 -24 -46 18 -108 47 -69 81 -87 104 -57 22 29 16
50 -28 113 -41 58 -65 72 -94 52z"/>
<path d="M1476 678 c-17 -28 -18 -217 -1 -234 19 -20 50 -24 70 -8 17 13 20
29 23 120 3 89 1 108 -14 125 -23 26 -60 24 -78 -3z"/>
</g>
</svg>
